<?xml version="1.0" standalone="no"?>
<!DOCTYPE svg PUBLIC "-//W3C//DTD SVG 20010904//EN"
 "http://www.w3.org/TR/2001/REC-SVG-20010904/DTD/svg10.dtd">
<svg version="1.0" xmlns="http://www.w3.org/2000/svg"
 width="512.000000pt" height="512.000000pt" viewBox="0 0 512.000000 512.000000"
 preserveAspectRatio="xMidYMid meet">
<metadata>
Created by potrace 1.11, written by Peter Selinger 2001-2013
</metadata>
<g transform="translate(0.000000,512.000000) scale(0.100000,-0.100000)"
fill="#000000" stroke="none">
<path d="M2960 4913 c-303 -31 -564 -105 -825 -233 -258 -127 -455 -269 -671
-484 -377 -378 -595 -790 -685 -1301 -30 -171 -38 -498 -15 -653 19 -129 53
-253 99 -361 30 -72 32 -74 34 -41 2 19 8 59 14 88 9 45 8 61 -10 115 -44 135
-56 231 -56 457 0 387 60 656 219 985 117 242 258 437 466 646 313 314 670
523 1065 624 433 111 986 108 1298 -6 170 -62 252 -147 252 -264 0 -52 -6 -74
-42 -146 -41 -83 -142 -209 -167 -209 -7 0 -48 38 -90 85 -87 95 -172 160
-260 199 -32 14 -60 26 -63 26 -2 0 29 -27 70 -59 79 -63 186 -189 253 -299
34 -57 45 -67 72 -70 27 -3 41 7 110 76 170 170 217 318 148 468 -75 164 -353
304 -694 349 -103 14 -421 19 -522 8z"/>
<path d="M3070 4724 c-473 -42 -830 -179 -1063 -408 -128 -125 -191 -249 -209
-410 -18 -151 22 -270 139 -416 121 -151 263 -270 602 -502 575 -394 791 -603
841 -816 37 -158 -71 -359 -263 -486 -250 -165 -528 -237 -857 -223 -341 15
-574 101 -750 277 -105 104 -161 206 -190 345 -10 50 -19 91 -19 93 -1 2 -35
-20 -76 -49 -101 -70 -202 -177 -211 -225 -47 -250 245 -480 716 -566 96 -18
157 -21 370 -22 271 -1 380 8 587 50 469 93 865 341 1012 633 47 91 71 197 71
306 0 134 -35 226 -138 365 -127 172 -327 341 -725 613 -415 284 -564 394
-606 449 -95 121 -107 315 -29 474 78 161 280 304 513 363 338 85 730 33 972
-130 27 -17 78 -61 114 -96 l66 -64 28 33 c40 48 75 127 75 172 0 57 -36 98
-123 141 -77 37 -180 67 -299 85 -74 11 -465 21 -548 14z"/>
<path d="M1609 3665 c-255 -510 -315 -1173 -141 -1579 88 -205 254 -395 390
-446 103 -39 222 -60 372 -67 133 -5 150 -4 192 15 64 28 82 59 75 127 -7 68
-38 139 -71 160 -22 15 -32 15 -75 4 -41 -10 -57 -10 -90 1 -49 16 -89 3 -128
-44 -33 -39 -83 -144 -83 -173 0 -13 -5 -23 -10 -23 -17 0 -132 60 -169 87
l-33 26 48 16 c64 22 84 52 95 142 17 147 13 174 -27 219 -47 52 -64 56 -129
29 -47 -20 -59 -21 -93 -11 -59 18 -69 15 -116 -28 l-43 -40 -26 57 c-62 140
-93 350 -84 573 13 322 71 570 198 854 48 106 49 112 39 161 -5 27 -11 59 -13
70 -2 12 -31 -37 -78 -130z"/>
<path d="M1825 2420 c-65 -15 -95 -44 -95 -93 0 -36 28 -63 87 -82 29 -9 55
-21 58 -26 10 -16 69 -10 102 10 64 40 47 123 -34 168 -48 26 -80 32 -118 23z"/>
<path d="M2975 2385 c-39 -38 -35 -95 10 -140 20 -19 43 -35 53 -35 40 -1 45
-14 27 -70 -16 -48 -16 -54 0 -95 36 -95 118 -124 173 -61 40 45 49 102 26
152 -17 36 -65 74 -94 74 -36 1 -44 16 -31 63 11 38 11 49 -3 75 -34 65 -115
84 -161 37z"/>
<path d="M3930 2218 c-39 -34 -70 -68 -70 -77 0 -9 -11 -46 -23 -83 -27 -78
-29 -78 82 26 67 63 75 67 85 50 6 -11 11 -48 11 -84 0 -54 -6 -77 -34 -135
-82 -166 -338 -352 -693 -504 -398 -171 -761 -234 -1213 -210 -298 15 -516 53
-668 115 -33 13 -62 22 -64 20 -8 -8 127 -78 214 -112 105 -41 286 -87 413
-105 120 -17 463 -17 595 0 412 52 841 208 1168 424 202 133 326 275 362 412
20 80 19 134 -6 208 -44 131 -64 138 -159 55z"/>
<path d="M2721 2200 c-58 -59 -50 -144 20 -204 53 -44 70 -48 119 -24 75 38
92 117 39 184 -64 81 -125 96 -178 44z"/>
<path d="M2259 2156 c-94 -64 -93 -152 2 -202 29 -15 33 -14 86 11 55 27 93
71 93 108 0 27 -37 75 -70 92 -41 21 -70 19 -111 -9z"/>
<path d="M2724 1896 c-47 -21 -74 -61 -74 -113 0 -77 48 -133 113 -133 46 0
154 40 181 66 36 37 36 91 -1 126 -66 61 -153 83 -219 54z"/>
<path d="M510 738 c-85 -24 -125 -90 -101 -168 13 -44 45 -72 129 -114 29 -15
62 -36 72 -46 29 -29 26 -76 -5 -96 -35 -23 -121 -15 -162 14 -17 12 -34 22
-37 22 -3 0 -6 -20 -6 -44 0 -42 2 -45 38 -57 53 -19 170 -17 209 4 50 26 73
63 73 116 0 68 -25 101 -111 146 -79 41 -119 75 -119 100 0 9 11 27 25 40 19
20 34 25 72 25 26 0 61 -7 77 -15 15 -8 30 -15 32 -15 2 0 4 20 4 44 0 42 -1
44 -37 50 -52 8 -111 6 -153 -6z"/>
<path d="M995 741 c-63 -15 -133 -69 -162 -124 -23 -45 -33 -130 -23 -194 12
-72 47 -125 107 -160 40 -23 59 -28 123 -28 41 0 92 6 113 13 34 13 37 16 37
53 0 21 -1 39 -2 39 -2 0 -21 -7 -43 -15 -90 -32 -177 -12 -219 52 -62 95 -31
229 65 278 36 19 110 19 156 0 19 -8 37 -15 39 -15 2 0 4 20 4 44 l0 44 -50
11 c-56 12 -100 13 -145 2z"/>
<path d="M2645 741 c-63 -15 -133 -69 -162 -124 -23 -45 -33 -130 -23 -194 12
-72 47 -125 107 -160 40 -23 59 -28 123 -28 41 0 92 6 113 13 34 13 37 16 37
53 0 21 -1 39 -2 39 -2 0 -21 -7 -43 -15 -90 -32 -177 -12 -219 52 -62 95 -31
229 65 278 36 19 110 19 156 0 19 -8 37 -15 39 -15 2 0 4 20 4 44 l0 44 -50
11 c-56 12 -100 13 -145 2z"/>
<path d="M3785 741 c-63 -15 -133 -69 -162 -124 -23 -45 -33 -130 -23 -194 12
-72 47 -125 107 -160 40 -23 59 -28 123 -28 41 0 92 6 113 13 34 13 37 16 37
53 0 21 -1 39 -2 39 -2 0 -21 -7 -43 -15 -90 -32 -177 -12 -219 52 -62 95 -31
229 65 278 36 19 110 19 156 0 19 -8 37 -15 39 -15 2 0 4 20 4 44 l0 44 -50
11 c-56 12 -100 13 -145 2z"/>
<path d="M1336 502 c-49 -130 -91 -243 -94 -250 -3 -10 7 -12 44 -10 l48 3 20
63 20 62 98 0 c56 0 98 -4 98 -10 0 -5 9 -34 21 -65 l20 -55 45 0 c24 0 44 4
44 9 0 4 -32 93 -71 197 -39 104 -80 213 -91 242 l-19 52 -47 0 -47 0 -89
-238z m171 28 l32 -90 -68 0 -69 0 32 90 c17 49 33 90 36 90 3 0 20 -40 37
-90z"/>
<path d="M1782 543 c3 -183 5 -201 25 -233 28 -46 68 -68 134 -76 106 -12 194
37 218 121 6 22 11 118 11 213 l0 172 -45 0 -45 0 0 -175 c0 -223 -13 -255
-105 -255 -92 0 -105 32 -105 255 l0 175 -46 0 -46 0 4 -197z"/>
<path d="M2950 490 l0 -250 40 0 40 0 0 250 0 250 -40 0 -40 0 0 -250z"/>
<path d="M3170 491 l0 -251 40 0 40 0 0 100 0 100 33 0 c41 0 59 -18 122 -122
l46 -78 50 0 c27 0 49 2 49 5 0 9 -131 205 -141 211 -5 3 9 22 32 43 36 32 42
43 46 87 4 35 0 60 -11 82 -27 51 -66 66 -193 70 l-113 4 0 -251z m207 157
c32 -30 31 -81 -2 -113 -19 -20 -34 -25 -75 -25 l-50 0 0 80 0 80 52 0 c39 0
57 -5 75 -22z"/>
<path d="M4080 490 l0 -250 135 0 135 0 0 40 0 40 -95 0 -95 0 0 210 0 210
-40 0 -40 0 0 -250z"/>
<path d="M4450 490 l0 -250 140 0 140 0 0 40 0 40 -100 0 -100 0 0 65 0 65 85
0 85 0 0 40 0 40 -85 0 -85 0 0 65 0 65 95 0 95 0 0 40 0 40 -135 0 -135 0 0
-250z"/>
</g>
</svg>
